name GIL08_free1.mot
datacolumns 153
datarows 4
range 0.40833333 0.43333331
endheader

                time	           pelvis_tx	           pelvis_ty	           pelvis_tz	         pelvis_tilt	         pelvis_list	     pelvis_rotation	       hip_flexion_r	     hip_adduction_r	      hip_rotation_r	        knee_angle_r	       ankle_angle_r	    subtalar_angle_r	         mtp_angle_r	       hip_flexion_l	     hip_adduction_l	      hip_rotation_l	        knee_angle_l	       ankle_angle_l	    subtalar_angle_l	         mtp_angle_l	    lumbar_extension	      lumbar_bending	     lumbar_rotation	     ground_force_vx	     ground_force_vy	     ground_force_vz	     ground_force_px	     ground_force_py	     ground_force_pz	     ground_force_vx	     ground_force_vy	     ground_force_vz	     ground_force_px	     ground_force_py	     ground_force_pz	     ground_torque_x	     ground_torque_y	     ground_torque_z	     ground_torque_x	     ground_torque_y	     ground_torque_z	    ground_marker_px	    ground_marker_py	    ground_marker_pz	    ground_marker_px	    ground_marker_py	    ground_marker_pz	    ground_marker_px	    ground_marker_py	    ground_marker_pz	    ground_marker_px	    ground_marker_py	    ground_marker_pz	    ground_marker_px	    ground_marker_py	    ground_marker_pz	    ground_marker_px	    ground_marker_py	    ground_marker_pz	    ground_marker_px	    ground_marker_py	    ground_marker_pz	    ground_marker_px	    ground_marker_py	    ground_marker_pz	    ground_marker_px	    ground_marker_py	    ground_marker_pz	    ground_marker_px	    ground_marker_py	    ground_marker_pz	    ground_marker_px	    ground_marker_py	    ground_marker_pz	    ground_marker_px	    ground_marker_py	    ground_marker_pz	    ground_marker_px	    ground_marker_py	    ground_marker_pz	    ground_marker_px	    ground_marker_py	    ground_marker_pz	    ground_marker_px	    ground_marker_py	    ground_marker_pz	    ground_marker_px	    ground_marker_py	    ground_marker_pz	    ground_marker_px	    ground_marker_py	    ground_marker_pz	    ground_marker_px	    ground_marker_py	    ground_marker_pz	    ground_marker_px	    ground_marker_py	    ground_marker_pz	    ground_marker_px	    ground_marker_py	    ground_marker_pz	    ground_marker_px	    ground_marker_py	    ground_marker_pz	    ground_marker_px	    ground_marker_py	    ground_marker_pz	    ground_marker_px	    ground_marker_py	    ground_marker_pz	    ground_marker_px	    ground_marker_py	    ground_marker_pz	    ground_marker_px	    ground_marker_py	    ground_marker_pz	    ground_marker_px	    ground_marker_py	    ground_marker_pz	    ground_marker_px	    ground_marker_py	    ground_marker_pz	    ground_marker_px	    ground_marker_py	    ground_marker_pz	    ground_marker_px	    ground_marker_py	    ground_marker_pz	    ground_marker_px	    ground_marker_py	    ground_marker_pz	    ground_marker_px	    ground_marker_py	    ground_marker_pz	    ground_marker_px	    ground_marker_py	    ground_marker_pz	    ground_marker_px	    ground_marker_py	    ground_marker_pz	    ground_marker_px	    ground_marker_py	    ground_marker_pz	    ground_marker_px	    ground_marker_py	    ground_marker_pz	    ground_marker_px	    ground_marker_py	    ground_marker_pz	    ground_marker_px	    ground_marker_py	    ground_marker_pz	
          0.40833333	          1.64705515	          0.98457897	         -0.25195903	          4.50828218	         -0.64289010	         -0.01326718	         19.70774460	         -1.61838651	          6.19259071	        -36.88053894	          8.31859112	          0.00000000	          0.00000000	         -8.78892326	         -0.76753217	         10.27428341	         -8.62559319	         11.65318394	          0.00000000	          0.00000000	        -21.62180328	          0.21282257	          6.24883890	          0.00000000	          0.00000000	          0.00000000	          2.03042529	          0.00000000	         -0.17476608	          4.82565084	        525.23630437	         13.79938646	          1.53899927	          0.00000000	         -0.28263443	          0.00000000	          0.00000000	          0.00000000	          0.00000000	         -1.12433997	          0.00000000	          1.57377267	          0.90143204	         -0.24958101	          1.56846046	          0.88828880	         -0.19749960	          1.56832898	          0.88710004	         -0.30406284	          1.74098396	          0.50488800	         -0.18155219	          1.53754103	          0.47578499	         -0.30496207	          1.64855027	          0.10220761	         -0.17709227	          1.43882954	          0.06981717	         -0.28043228	          1.64705515	          0.98457897	         -0.25195903	          1.64718294	          0.98573434	         -0.14838926	          1.64692748	          0.98342359	         -0.35552880	          1.44911373	          1.00915813	         -0.20793165	          1.44745135	          1.01230800	         -0.29343799	          1.74622524	          0.50970358	         -0.12247942	          1.54811025	          0.47512186	         -0.36351207	          1.74206007	          0.51326364	         -0.23655868	          1.51775825	          0.48148152	         -0.25746304	          1.63999617	          0.10458039	         -0.14014369	          1.44011033	          0.06712586	         -0.31981966	          1.64746487	          0.11026036	         -0.20929383	          1.44501102	          0.07815789	         -0.25081035	          1.50961483	          1.46662438	         -0.24820724	          1.61675489	          1.39409471	         -0.17510495	          1.60042286	          1.39780605	         -0.33061299	          1.59590805	          1.39722395	         -0.25548169	          1.63440716	          1.19650197	         -0.27109939	          1.73327780	          0.61452579	         -0.03733686	          1.69169903	          0.59381121	         -0.30231142	          1.73559594	          0.67947078	         -0.10761009	          1.62680733	          0.65766507	         -0.35119975	          1.76457083	          0.60351735	         -0.12877385	          1.60827982	          0.57194299	         -0.34579578	          1.66189957	          0.18097737	         -0.07221220	          1.56366372	          0.15844652	         -0.27031663	          1.66332817	          0.23855759	         -0.13480102	          1.51005006	          0.21830641	         -0.29274347	          1.76139605	          0.06913595	         -0.17769881	          1.56608152	          0.04128123	         -0.28007552	
          0.41666666	          1.65590835	          0.98357654	         -0.25227249	          4.54118061	         -0.78538960	          0.24363062	         20.04137039	         -1.52928138	          5.82371807	        -34.87732697	          8.14240265	          0.00000000	          0.00000000	         -9.46900749	         -0.92330414	         10.59258747	         -8.50277233	         12.04400158	          0.00000000	          0.00000000	        -21.72423935	          0.47018600	          6.17720795	          0.00000000	          0.00000000	          0.00000000	          2.03194604	          0.00000000	         -0.17475754	          5.33710249	        529.43440360	         13.38670465	          1.54498840	          0.00000000	         -0.28230405	          0.00000000	          0.00000000	          0.00000000	          0.00000000	         -1.14077710	          0.00000000	          1.58182693	          0.89939153	         -0.24985665	          1.57762456	          0.88734877	         -0.19725779	          1.57698560	          0.88595921	         -0.30381677	          1.75272310	          0.50490785	         -0.18208662	          1.54153144	          0.47511113	         -0.30489224	          1.67704034	          0.09816809	         -0.17748097	          1.43901157	          0.07002842	         -0.28037906	          1.65590835	          0.98357654	         -0.25227249	          1.65652955	          0.98492742	         -0.14868018	          1.65528727	          0.98222566	         -0.35586482	          1.45822668	          1.00803995	         -0.20746097	          1.45607722	          1.01121330	         -0.29293969	          1.75791073	          0.50962687	         -0.12300135	          1.55215883	          0.47434729	         -0.36343050	          1.75288916	          0.51302683	         -0.23697831	          1.52212036	          0.48124716	         -0.25704134	          1.66818607	          0.10023341	         -0.14058469	          1.44031644	          0.06731486	         -0.31976414	          1.67600560	          0.10620551	         -0.20976685	          1.44524682	          0.07834518	         -0.25074404	          1.51882207	          1.46562827	         -0.24771762	          1.62603343	          1.39282143	         -0.17490149	          1.60935581	          1.39687252	         -0.33036095	          1.60500956	          1.39614189	         -0.25522271	          1.64322138	          1.19540441	         -0.27133909	          1.74411452	          0.61436164	         -0.03779369	          1.69718158	          0.59182143	         -0.30202359	          1.74593759	          0.67927104	         -0.10806616	          1.63290548	          0.65630937	         -0.35092416	          1.77524412	          0.60340476	         -0.12928919	          1.61350048	          0.57070744	         -0.34546104	          1.68650210	          0.17759058	         -0.07265018	          1.56447005	          0.15745918	         -0.27015337	          1.68596244	          0.23509416	         -0.13531019	          1.51157820	          0.21775520	         -0.29268643	          1.79116642	          0.06944273	         -0.17801137	          1.56601906	          0.04120869	         -0.28001755	
          0.42499998	          1.66481543	          0.98247683	         -0.25266969	          4.57235909	         -0.91086054	          0.52207309	         20.33921051	         -1.48829973	          5.32660532	        -32.85419083	          7.92475796	          0.00000000	          0.00000000	        -10.13467979	         -1.05359340	         10.87253571	         -8.40952587	         12.42566681	          0.00000000	          0.00000000	        -21.84099579	          0.70207018	          6.04350185	          0.00000000	          0.00000000	          0.00000000	          2.03354639	          0.00000000	         -0.17472928	          6.01857169	        533.74327752	         13.12063781	          1.55080005	          0.00000000	         -0.28200693	          0.00000000	          0.00000000	          0.00000000	          0.00000000	         -1.15773633	          0.00000000	          1.58825684	          0.89543712	         -0.25014776	          1.58685899	          0.88629740	         -0.19710808	          1.58567715	          0.88474309	         -0.30366012	          1.76429594	          0.50466180	         -0.18256970	          1.54564452	          0.47441778	         -0.30481258	          1.70546520	          0.09456540	         -0.17783755	          1.43924487	          0.07026457	         -0.28034258	          1.66481543	          0.98247683	         -0.25266969	          1.66596448	          0.98398805	         -0.14907299	          1.66366625	          0.98096561	         -0.35626641	          1.46741533	          1.00684130	         -0.20696129	          1.46474314	          1.01002562	         -0.29241714	          1.76931393	          0.50924665	         -0.12345923	          1.55627036	          0.47354549	         -0.36334959	          1.76326227	          0.51254058	         -0.23742238	          1.52688706	          0.48067406	         -0.25652745	          1.69633842	          0.09629988	         -0.14099067	          1.44055223	          0.06753583	         -0.31972653	          1.70438278	          0.10249729	         -0.21008444	          1.44553566	          0.07854971	         -0.25069311	          1.52810395	          1.46452928	         -0.24716899	          1.63532269	          1.39143550	         -0.17463471	          1.61839008	          1.39576840	         -0.33007795	          1.61416912	          1.39492106	         -0.25492448	          1.65203857	          1.19415057	         -0.27143350	          1.75453460	          0.61387432	         -0.03819935	          1.70270216	          0.58978862	         -0.30190042	          1.75625086	          0.67881340	         -0.10852972	          1.63883066	          0.65482360	         -0.35070109	          1.78561962	          0.60294366	         -0.12976839	          1.61877906	          0.56940615	         -0.34516940	          1.71106815	          0.17442705	         -0.07305723	          1.56537282	          0.15649171	         -0.27005342	          1.70856428	          0.23177846	         -0.13576272	          1.51319015	          0.21724811	         -0.29265901	          1.82066345	          0.07013961	         -0.17830311	          1.56596363	          0.04112719	         -0.27996245	
          0.43333331	          1.67378116	          0.98130453	         -0.25314850	          4.61099243	         -1.01875889	          0.81953210	         20.59115601	         -1.49675763	          4.70986795	        -30.83115578	          7.70437193	          0.00000000	          0.00000000	        -10.79889488	         -1.15631151	         11.08402252	         -8.34644604	         12.80606079	          0.00000000	          0.00000000	        -21.96352196	          0.92801279	          5.87959480	          0.00000000	          0.00000000	          0.00000000	          2.03517090	          0.00000000	         -0.17469833	          7.01869427	        538.32902224	         13.02297260	          1.55629846	          0.00000000	         -0.28175308	          0.00000000	          0.00000000	          0.00000000	          0.00000000	         -1.17468237	          0.00000000	          1.59736347	          0.89428627	         -0.25037819	          1.59618223	          0.88514644	         -0.19705237	          1.59442699	          0.88346356	         -0.30359462	          1.77571380	          0.50417066	         -0.18298283	          1.54987812	          0.47370484	         -0.30470839	          1.73364210	          0.09144904	         -0.17819721	          1.43952477	          0.07053576	         -0.28032798	          1.67378116	          0.98130453	         -0.25314850	          1.67548788	          0.98294079	         -0.14955664	          1.67207456	          0.97966832	         -0.35674033	          1.47667146	          1.00555706	         -0.20643473	          1.47345877	          1.00873518	         -0.29187629	          1.78045058	          0.50858712	         -0.12383633	          1.56041420	          0.47271851	         -0.36325982	          1.77353370	          0.51168805	         -0.23770748	          1.53156257	          0.48022842	         -0.25618911	          1.72432280	          0.09282590	         -0.14138342	          1.44080329	          0.06780412	         -0.31971264	          1.73232400	          0.09920286	         -0.21040918	          1.44585133	          0.07878799	         -0.25065175	          1.53743196	          1.46331739	         -0.24662794	          1.64459872	          1.38996911	         -0.17432977	          1.62744153	          1.39459586	         -0.32976454	          1.62333107	          1.39362550	         -0.25459436	          1.66086650	          1.19282556	         -0.27150357	          1.76456821	          0.61308473	         -0.03854076	          1.70823610	          0.58772045	         -0.30200428	          1.76637554	          0.67804641	         -0.10897009	          1.64487946	          0.65335232	         -0.35064206	          1.79574680	          0.60220218	         -0.13009283	          1.62405038	          0.56809467	         -0.34505510	          1.73560512	          0.17152956	         -0.07344558	          1.56635594	          0.15555988	         -0.27004769	          1.73106802	          0.22861196	         -0.13616797	          1.51489437	          0.21679635	         -0.29269221	          1.84981728	          0.07128275	         -0.17861888	          1.56593704	          0.04105680	         -0.27993792	
